<svg xmlns="http://www.w3.org/2000/svg" version="1.1" xmlns:xlink="http://www.w3.org/1999/xlink" width="1000" height="1000"><g clip-path="url(#SvgjsClipPath1033)"><rect width="1000" height="1000" fill="#ffffff"></rect><g transform="matrix(2.6923076923076925,0,0,2.6923076923076925,150,204.22307692307692)"><svg xmlns="http://www.w3.org/2000/svg" version="1.1" xmlns:xlink="http://www.w3.org/1999/xlink" width="260" height="219.72"><svg id="Layer_2" data-name="Layer 2" xmlns="http://www.w3.org/2000/svg" viewBox="0 0 260 219.72">
  <defs>
    <style>
      .cls-1 {
        fill: #393335;
      }

      .cls-2 {
        fill: #585255;
      }
    </style>
  <clipPath id="SvgjsClipPath1033"><rect width="1000" height="1000" x="0" y="0" rx="350" ry="350"></rect></clipPath></defs>
  <g id="Layer_1-2" data-name="Layer 1">
    <g>
      <polygon class="cls-2" points="129.95 24.41 260 73.24 260 48.83 130 0 0 48.83 0 48.88 0 73.24 0 97.65 0 109.91 0 122.07 129.95 73.24 235.59 112.9 235.59 137.31 130 97.65 0 146.48 0 170.89 0 195.31 0 207.51 0 219.72 260 219.72 260 195.31 130 146.48 24.41 186.14 24.41 161.72 129.95 122.07 260 170.89 260 158.69 260 146.48 260 122.07 260 97.65 130 48.83 24.41 88.48 24.41 64.07 129.95 24.41"></polygon>
      <g>
        <polygon class="cls-1" points="129.95 122.07 130 122.08 130 97.65 0 146.48 0 170.89 0 195.31 0 207.51 0 219.72 130 219.72 130 146.48 24.41 186.14 24.41 161.72 129.95 122.07"></polygon>
        <polygon class="cls-1" points="0 48.88 0 73.24 0 97.65 0 109.91 0 122.07 129.95 73.24 130 73.26 130 48.83 24.41 88.48 24.41 64.07 129.95 24.41 130 24.43 130 0 0 48.83 0 48.88"></polygon>
      </g>
    </g>
  </g>
</svg></svg></g></g></svg>