<?xml version="1.0" encoding="UTF-8"?>
<svg id="Layer_2" data-name="Layer 2" xmlns="http://www.w3.org/2000/svg" viewBox="0 0 500 132.79">
  <defs>
    <style>
      .cls-1 {
        fill: #e6e6e6;
      }

      .cls-2 {
        fill: #fff;
      }
    </style>
  </defs>
  <g id="Layer_1-2" data-name="Layer 1">
    <g>
      <g>
        <path class="cls-2" d="M2.01,117.48c.97-1.54,2.29-2.75,3.96-3.62,1.67-.87,3.53-1.31,5.57-1.31,2.4,0,4.49.52,6.28,1.56,1.79,1.04,3.09,2.52,3.92,4.43h-3.44c-.61-1.19-1.49-2.11-2.64-2.76-1.15-.64-2.52-.97-4.12-.97s-2.92.32-4.14.97c-1.22.64-2.18,1.56-2.87,2.74-.69,1.18-1.04,2.57-1.04,4.16s.35,2.95,1.04,4.14c.69,1.18,1.65,2.1,2.87,2.74,1.22.64,2.6.97,4.14.97s2.97-.32,4.12-.95c1.15-.63,2.03-1.55,2.64-2.74h3.44c-.82,1.89-2.13,3.36-3.92,4.39-1.79,1.03-3.88,1.55-6.28,1.55-2.04,0-3.9-.43-5.57-1.29-1.67-.86-2.99-2.06-3.96-3.6-.97-1.54-1.45-3.27-1.45-5.2s.48-3.67,1.45-5.22Z"/>
        <path class="cls-2" d="M80.4,128.21h-9.6l-1.77,4.41h-3.03l7.96-19.7h3.32l7.93,19.7h-3.03l-1.77-4.41ZM79.58,126.11l-3.98-10-3.98,10h7.96Z"/>
        <path class="cls-2" d="M143.26,123.3c.66.47,1.19,1.06,1.58,1.76.39.7.58,1.45.58,2.25,0,1-.28,1.91-.85,2.71-.57.81-1.4,1.44-2.48,1.9-1.08.46-2.36.7-3.84.7h-8.21v-19.81h7.89c1.49,0,2.77.22,3.82.67,1.05.45,1.84,1.05,2.37,1.8.53.76.79,1.61.79,2.56,0,1.17-.35,2.15-1.06,2.91-.71.77-1.64,1.32-2.79,1.66.8.11,1.53.41,2.19.88ZM132.91,121.36h4.83c1.35,0,2.39-.28,3.13-.85.74-.57,1.11-1.35,1.11-2.36s-.37-1.79-1.11-2.36c-.74-.57-1.8-.85-3.19-.85h-4.77v6.42ZM141.35,129.58c.8-.61,1.2-1.45,1.2-2.53s-.42-1.97-1.26-2.6c-.84-.63-1.97-.95-3.38-.95h-4.99v6.99h5.08c1.43,0,2.55-.3,3.35-.91Z"/>
        <path class="cls-2" d="M193.64,112.81v19.81h-2.87v-19.81h2.87Z"/>
        <path class="cls-2" d="M257.21,132.62h-2.87l-11.56-15.77v15.77h-2.87v-19.84h2.87l11.56,15.75v-15.75h2.87v19.84Z"/>
        <path class="cls-2" d="M306.35,114.91v6.62h8.02v2.13h-8.02v6.82h8.97v2.13h-11.84v-19.84h11.84v2.13h-8.97Z"/>
        <path class="cls-2" d="M374.6,112.81v2.1h-6v17.71h-2.87v-17.71h-6.03v-2.1h14.91Z"/>
        <path class="cls-2" d="M431.09,132.62l-5.24-8.1h-3.47v8.1h-2.87v-19.81h7.11c1.66,0,3.07.26,4.22.77,1.15.51,2.01,1.2,2.57,2.07s.85,1.87.85,2.98c0,1.36-.44,2.57-1.31,3.61-.87,1.04-2.18,1.73-3.93,2.07l5.53,8.3h-3.44ZM422.38,122.44h4.23c1.56,0,2.73-.35,3.51-1.04s1.17-1.62,1.17-2.77-.38-2.08-1.15-2.73c-.77-.64-1.94-.97-3.52-.97h-4.23v7.5Z"/>
        <path class="cls-2" d="M495.48,112.81l-7.17,12.34v7.48h-2.87v-7.48l-7.2-12.34h3.19l5.43,10.03,5.43-10.03h3.19Z"/>
      </g>
      <path class="cls-2" d="M313.79,34.08l-11.6,42.41c-1.54,5.65-6.72,9.63-12.63,9.63h-15.58v5.56h15.58c8.39,0,15.79-5.65,18.02-13.69l11.6-42.41c1.54-5.65,6.72-9.63,12.63-9.63h14.08v-5.56h-14.08c-8.39,0-15.79,5.65-18.02,13.69Z"/>
      <path class="cls-2" d="M233.12,20.34c-19.73,0-35.78,16.01-35.78,35.65s16.05,35.65,35.78,35.65,35.78-16.01,35.78-35.65-16.05-35.65-35.78-35.65ZM263.33,55.99c0,16.61-13.57,30.09-30.21,30.09s-30.21-13.48-30.21-30.09,13.57-30.09,30.21-30.09,30.21,13.48,30.21,30.09Z"/>
      <path class="cls-2" d="M408.11,34.72l1.11,1.11,3.94-3.94-1.11-1.11c-6.76-6.72-15.75-10.44-25.29-10.44s-18.57,3.72-25.29,10.44c-6.76,6.72-10.49,15.66-10.49,25.21s3.72,18.49,10.49,25.21c6.76,6.72,15.75,10.44,25.29,10.44s18.53-3.72,25.29-10.44l1.11-1.11-3.94-3.94-1.11,1.11c-5.69,5.69-13.31,8.82-21.36,8.82s-15.66-3.12-21.36-8.82c-5.69-5.69-8.86-13.22-8.86-21.27s3.12-15.58,8.86-21.27c11.77-11.73,30.94-11.73,42.71,0Z"/>
      <path class="cls-2" d="M464.22,20.34c-19.73,0-35.78,16.01-35.78,35.65s16.05,35.65,35.78,35.65,35.78-16.01,35.78-35.65-16.05-35.65-35.78-35.65ZM494.39,55.99c0,16.61-13.57,30.09-30.21,30.09s-30.21-13.48-30.21-30.09,13.57-30.09,30.21-30.09,30.21,13.48,30.21,30.09Z"/>
      <path class="cls-2" d="M182.06,39.56c0-10.61-8.64-19.22-19.3-19.22h-33.94v71.3h33.94c10.66,0,19.3-8.6,19.3-19.22,0-6.85-3.51-12.97-9.29-16.43,5.78-3.47,9.29-9.59,9.29-16.43ZM176.49,39.56c0,7.53-6.16,13.65-13.69,13.65h-28.37v-27.3h28.37c7.58,0,13.69,6.12,13.69,13.65ZM134.38,86.08v-27.3h28.37c7.58,0,13.69,6.12,13.69,13.65s-6.16,13.65-13.69,13.65h-28.37Z"/>
      <g>
        <polygon class="cls-2" points="54.2 10.18 108.44 30.55 108.44 20.36 54.22 0 0 20.36 0 20.39 0 30.55 0 40.73 0 45.84 0 50.91 54.2 30.55 98.26 47.09 98.26 57.27 54.22 40.73 0 61.09 0 71.28 0 81.46 0 86.55 0 91.64 108.44 91.64 108.44 81.46 54.22 61.09 10.18 77.64 10.18 67.45 54.2 50.91 108.44 71.28 108.44 66.19 108.44 61.09 108.44 50.91 108.44 40.73 54.22 20.36 10.18 36.91 10.18 26.72 54.2 10.18"/>
        <g>
          <polygon class="cls-1" points="54.2 50.91 54.22 50.92 54.22 40.73 0 61.09 0 71.28 0 81.46 0 86.55 0 91.64 54.22 91.64 54.22 61.09 10.18 77.64 10.18 67.45 54.2 50.91"/>
          <polygon class="cls-1" points="0 20.39 0 30.55 0 40.73 0 45.84 0 50.91 54.2 30.55 54.22 30.55 54.22 20.36 10.18 36.91 10.18 26.72 54.2 10.18 54.22 10.19 54.22 0 0 20.36 0 20.39"/>
        </g>
      </g>
    </g>
  </g>
</svg>